<?xml version="1.0" encoding="utf-8"?>
<!-- Svg Vector Icons : http://www.onlinewebfonts.com/icon -->
<!DOCTYPE svg PUBLIC "-//W3C//DTD SVG 1.1//EN" "http://www.w3.org/Graphics/SVG/1.1/DTD/svg11.dtd">
<svg version="1.1" xmlns="http://www.w3.org/2000/svg" xmlns:xlink="http://www.w3.org/1999/xlink" x="0px" y="0px" viewBox="0 0 1000 1000" enable-background="new 0 0 1000 1000" xml:space="preserve">
<metadata> Svg Vector Icons : http://www.onlinewebfonts.com/icon </metadata>
<g><path d="M469.9,36.4c16.5-35.2,43.6-35.2,60.1,0L631.5,252c16.5,35.1,60.3,68.5,97.3,74.2l226.9,34.6c37,5.6,45.3,32.6,18.6,60L810.2,588.5c-26.8,27.4-43.5,81.4-37.2,120l38.8,237c6.3,38.6-15.6,55.3-48.7,37.1L560.1,870.7c-33.1-18.2-87.2-18.2-120.3,0L236.9,982.6c-33.1,18.2-55,1.6-48.7-37.1l38.8-237c6.3-38.6-10.4-92.6-37.2-120L25.7,420.7c-26.8-27.4-18.4-54.4,18.6-60l226.9-34.6c37-5.6,80.8-39,97.3-74.2L469.9,36.4L469.9,36.4z"/></g>
</svg>